HIERARCHY
ROOT SpineBase
{
  OFFSET 0.000000 0.000000 0.000000
  CHANNELS 6 Xposition Yposition Zposition Zrotation Xrotation Yrotation
  JOINT SpineMid
  {
    OFFSET 0.000000 36.288520 0.000000
    CHANNELS 3 Zrotation Xrotation Yrotation
    JOINT SpineShoulder
    {
      OFFSET 0.135965 26.713010 -0.862549
      CHANNELS 3 Zrotation Xrotation Yrotation
      JOINT Neck
      {
        OFFSET 0.102279 8.754420 -0.645183
        CHANNELS 3 Zrotation Xrotation Yrotation
        JOINT Head
        {
          OFFSET 2.881750 11.231448 4.171219
          CHANNELS 3 Zrotation Xrotation Yrotation
          End Site
          {
            OFFSET 0 0 0
          }
        }
      }
      JOINT ShoulderLeft
      {
        OFFSET -2.315503 -6.773153 -15.048012
        CHANNELS 3 Zrotation Xrotation Yrotation
        JOINT ElbowLeft
        {
          OFFSET 2.543437 -29.561868 -7.230151
          CHANNELS 3 Zrotation Xrotation Yrotation
          JOINT WristLeft
          {
            OFFSET 6.862602 -25.297067 1.479572
            CHANNELS 3 Zrotation Xrotation Yrotation
            JOINT HandLeft
            {
              OFFSET -0.400562 -8.822014 3.143967
              CHANNELS 3 Zrotation Xrotation Yrotation
              JOINT HandTipLeft
              {
                OFFSET 3.167548 -7.427642 1.020224
                CHANNELS 3 Zrotation Xrotation Yrotation
                End Site
                {
                  OFFSET 0 0 0
                }
              }
              JOINT ThumbLeft
              {
                OFFSET 4.707841 2.871135 5.763768
                CHANNELS 3 Zrotation Xrotation Yrotation
                End Site
                {
                  OFFSET 0 0 0
                }
              }
            }
          }
        }
      }
      JOINT ShoulderRight
      {
        OFFSET 6.589829 -7.643882 16.247043
        CHANNELS 3 Zrotation Xrotation Yrotation
        JOINT ElbowRight
        {
          OFFSET 0.569892 -28.084554 9.519655
          CHANNELS 3 Zrotation Xrotation Yrotation
          JOINT WristRight
          {
            OFFSET 16.246754 18.505639 22.874379
            CHANNELS 3 Zrotation Xrotation Yrotation
            JOINT HandRight
            {
              OFFSET 2.102208 3.045958 1.795405
              CHANNELS 3 Zrotation Xrotation Yrotation
              JOINT HandTipRight
              {
                OFFSET 4.308522 4.353477 1.160074
                CHANNELS 3 Zrotation Xrotation Yrotation
                End Site
                {
                  OFFSET 0 0 0
                }
              }
              JOINT ThumbRight
              {
                OFFSET -2.995389 3.692165 -1.903559
                CHANNELS 3 Zrotation Xrotation Yrotation
                End Site
                {
                  OFFSET 0 0 0
                }
              }
            }
          }
        }
      }
    }
  }
  JOINT HipLeft
  {
    OFFSET -1.370001 1.060299 -8.713507
    CHANNELS 3 Zrotation Xrotation Yrotation
    JOINT KneeLeft
    {
      OFFSET -2.814540 -40.055234 7.362727
      CHANNELS 3 Zrotation Xrotation Yrotation
      JOINT AnkleLeft
      {
        OFFSET -6.218427 -36.927694 6.330621
        CHANNELS 3 Zrotation Xrotation Yrotation
        JOINT FootLeft
        {
          OFFSET 11.980374 -5.030225 -6.150066
          CHANNELS 3 Zrotation Xrotation Yrotation
          End Site
          {
            OFFSET 0 0 0
          }
        }
      }
    }
  }
  JOINT HipRight
  {
    OFFSET 2.630161 -0.140808 0.158308
    CHANNELS 3 Zrotation Xrotation Yrotation
    JOINT KneeRight
    {
      OFFSET -17.995206 -40.918092 11.964042
      CHANNELS 3 Zrotation Xrotation Yrotation
      JOINT AnkleRight
      {
        OFFSET -5.651663 -35.231075 8.147831
        CHANNELS 3 Zrotation Xrotation Yrotation
        JOINT FootRight
        {
          OFFSET 7.340956 -6.619954 -8.631733
          CHANNELS 3 Zrotation Xrotation Yrotation
          End Site
          {
            OFFSET 0 0 0
          }
        }
      }
    }
  }
}
MOTION
Frames: 6
Frame Time: 0.033333
-50.352648 83.162185 325.228576 0.238186 -0.739612 -60.249873 -0.027662 -0.202088 60.258474 -0.094169 -0.141281 0.002730 -4.836024 2.538909 1.523773 0.000000 0.000000 0.000000 0.045311 0.957156 -0.008227 0.375326 -0.736658 -0.175257 0.023974 -0.445903 0.373895 1.032060 6.128852 2.024970 0.000000 0.000000 0.000000 0.000000 0.000000 0.000000 22.212864 -41.226315 13.191395 -2.808927 50.577998 -27.579938 -7.544480 -15.865556 22.998288 0.012909 -4.833232 5.521969 0.000000 0.000000 0.000000 0.000000 0.000000 0.000000 -0.334433 -0.616908 60.222115 -1.408653 -0.137108 -0.131044 -9.808191 -5.942774 -3.339924 0.000000 0.000000 0.000000 1.464031 -9.301794 61.221790 11.231282 10.354410 -1.530657 -2.968692 -4.493127 -2.098147 0.000000 0.000000 0.000000
-50.151784 83.160371 324.954714 0.128672 -0.581698 -57.799317 -0.560795 0.201093 57.800954 -0.209581 -0.800511 -0.007553 -4.860203 2.595901 1.550936 0.000000 0.000000 0.000000 0.209496 0.800533 0.004626 0.934474 -0.444054 -0.062035 0.755684 0.591496 0.650604 1.699970 4.168282 1.574187 0.000000 0.000000 0.000000 0.000000 0.000000 0.000000 15.007058 -32.751050 7.812861 5.631920 32.974065 -30.912873 -1.679984 -18.404971 31.833252 -2.909696 5.690983 2.830570 0.000000 0.000000 0.000000 0.000000 0.000000 0.000000 -0.749107 -0.862866 57.644763 -0.538025 -0.761921 0.079655 -4.325000 -2.347694 -1.429629 0.000000 0.000000 0.000000 2.055548 -10.895410 59.209676 12.216497 12.325506 -2.293016 -4.890827 -5.352131 0.151195 0.000000 0.000000 0.000000
-49.993305 83.190003 324.752200 -0.053958 -0.460221 -56.920335 -0.356177 0.296401 56.921039 -0.509012 -0.667023 -0.032668 -4.923506 2.339753 1.727720 0.000000 0.000000 0.000000 0.508666 0.667287 0.026743 1.326974 -0.098828 0.051784 1.470451 2.048070 0.812136 2.407227 4.451178 2.340278 0.000000 0.000000 0.000000 0.000000 0.000000 0.000000 6.881845 -18.319391 2.642145 13.030443 10.992411 -27.156047 4.716230 -17.315254 36.054311 -6.931036 13.882914 2.385510 0.000000 0.000000 0.000000 0.000000 0.000000 0.000000 -1.089921 -1.085149 56.639687 0.484509 -1.390031 0.335169 1.082237 1.530258 -0.086957 0.000000 0.000000 0.000000 2.088263 -11.110504 58.313775 12.548464 12.537645 -2.338556 -3.480530 -4.834629 -1.023237 0.000000 0.000000 0.000000
-49.866758 83.189201 324.708974 -0.263450 -0.457447 -57.469477 -0.142383 -0.397096 57.450377 -0.208322 -0.077554 -0.038332 -5.019368 1.977817 1.998360 0.000000 0.000000 0.000000 0.882559 0.629290 0.052871 1.426819 0.291705 0.158446 2.259770 2.786152 0.937516 1.467175 5.267519 2.853369 0.000000 0.000000 0.000000 0.000000 0.000000 0.000000 0.313850 -2.106520 -0.201611 20.052606 -8.048396 -18.561595 9.381321 -12.968714 29.954335 -13.636457 14.771592 8.119102 0.000000 0.000000 0.000000 0.000000 0.000000 0.000000 -1.574930 -1.291263 57.043689 1.620664 -2.123064 0.634964 0.601619 1.956544 -0.237543 0.000000 0.000000 0.000000 2.311161 -10.088202 58.860672 11.736256 12.509297 -2.327153 -4.632470 -5.329769 0.457400 0.000000 0.000000 0.000000
-49.730298 83.107052 324.726058 -0.452009 -0.460033 -58.599656 -0.240139 -0.518613 58.568526 -0.259550 -0.099631 -0.056618 -5.307715 1.361803 2.411052 0.000000 0.000000 0.000000 1.278485 0.626658 0.079955 1.301583 0.688331 0.254349 2.763578 3.495799 0.900493 0.901534 4.006559 2.734122 0.000000 0.000000 0.000000 0.000000 0.000000 0.000000 -0.199382 3.558769 -0.309398 22.731735 -16.022470 -15.221194 19.013942 -13.316507 29.501831 -23.926479 20.705815 13.575628 0.000000 0.000000 0.000000 0.000000 0.000000 0.000000 -1.956108 -1.627265 58.032386 2.753297 -2.797563 0.946159 1.962993 3.802025 0.483019 0.000000 0.000000 0.000000 2.305771 -9.080677 59.827623 11.245030 12.244636 -2.139402 -5.758975 -6.849222 0.419448 0.000000 0.000000 0.000000
-49.703391 83.003911 324.854144 -0.749603 -0.584974 -58.992907 -0.354473 -0.554636 58.948284 -0.297191 -0.105351 -0.075267 -5.548894 0.935623 2.789660 0.000000 0.000000 0.000000 1.703536 0.675433 0.107689 0.851046 0.898559 0.286423 3.209078 4.226158 0.808188 0.369862 3.577255 2.949381 0.000000 0.000000 0.000000 0.000000 0.000000 0.000000 0.812623 4.807735 -0.067122 23.726770 -19.908115 -13.856957 35.171349 -15.766117 31.295318 -43.533052 31.589373 22.586152 0.000000 0.000000 0.000000 0.000000 0.000000 0.000000 -2.457875 -1.417324 58.331215 3.402112 -3.816818 1.212404 1.402705 4.507067 0.951836 0.000000 0.000000 0.000000 2.121221 -7.713548 60.052414 10.631605 11.937588 -1.951130 -6.231043 -8.037727 -0.119639 0.000000 0.000000 0.000000
